
        <svg xmlns="http://www.w3.org/2000/svg" xmlns:xlink="http://www.w3.org/1999/xlink" version="1.1" width="3153.846153846154" 
        height="2738.4615384615386" viewBox="0 0 3153.846153846154 2738.4615384615386">
			
			<g transform="scale(7.6923076923076925) translate(10, 10)">
				<defs id="SvgjsDefs3777"><linearGradient id="SvgjsLinearGradient3786"><stop id="SvgjsStop3787" stop-color="#8f5e25" offset="0"></stop><stop id="SvgjsStop3788" stop-color="#fbf4a1" offset="0.5"></stop><stop id="SvgjsStop3789" stop-color="#8f5e25" offset="1"></stop></linearGradient><linearGradient id="SvgjsLinearGradient3790"><stop id="SvgjsStop3791" stop-color="#8f5e25" offset="0"></stop><stop id="SvgjsStop3792" stop-color="#fbf4a1" offset="0.5"></stop><stop id="SvgjsStop3793" stop-color="#8f5e25" offset="1"></stop></linearGradient><linearGradient id="SvgjsLinearGradient3794"><stop id="SvgjsStop3795" stop-color="#8f5e25" offset="0"></stop><stop id="SvgjsStop3796" stop-color="#fbf4a1" offset="0.5"></stop><stop id="SvgjsStop3797" stop-color="#8f5e25" offset="1"></stop></linearGradient><linearGradient id="SvgjsLinearGradient3798"><stop id="SvgjsStop3799" stop-color="#8f5e25" offset="0"></stop><stop id="SvgjsStop3800" stop-color="#fbf4a1" offset="0.5"></stop><stop id="SvgjsStop3801" stop-color="#8f5e25" offset="1"></stop></linearGradient></defs><g id="SvgjsG3778" featureKey="rootContainer" transform="matrix(1,0,0,1,0,0)" fill="url(#SvgjsLinearGradient3786)"><path xmlns="http://www.w3.org/2000/svg" fill-rule="evenodd" d=" M0,0 H390 V336 H0,0 z M2,2 H388 V334 H2,2 z M6,6 H384 V330 H6 z M8,8 H382 V328 H6,8 z "></path></g><g id="SvgjsG3779" featureKey="symbolFeature-0" transform="matrix(1.0088577544586839,0,0,1.0088577544586839,144.95561025528605,48.653174859312784)" fill="url(#SvgjsLinearGradient3790)"><g xmlns="http://www.w3.org/2000/svg"><g><path d="M32.643,84.516H65.24v-6.521H42.422c-4.321,0-7.824-3.503-7.824-7.823v-36.51c0-4.321,3.503-7.824,7.824-7.824H65.24    v-6.52H0.044v6.52h22.819c4.32,0,7.823,3.503,7.823,7.824v36.51c0,4.32-3.503,7.823-7.823,7.823H0.044v6.521H32.643z"></path></g><g><polygon points="66.305,19.958 98.102,3.102 98.102,7.198 66.305,24.054   "></polygon><path d="M97.039,4.869v1.69L67.367,22.287v-1.689L97.039,4.869 M99.166,1.335L65.24,19.318v6.502L99.166,7.838V1.335L99.166,1.335    z"></path></g><g><polygon points="66.305,78.653 98.102,61.797 98.102,65.894 66.305,82.749   "></polygon><path d="M97.039,63.563v1.69L67.367,80.982v-1.689L97.039,63.563 M99.166,60.03L65.24,78.014v6.502l33.926-17.982V60.03    L99.166,60.03z"></path></g><line fill="none" stroke="url(#SvgjsLinearGradient3790)" stroke-width="2.126" stroke-linejoin="bevel" x1="0.533" y1="20.204" x2="36.127" y2="1.335"></line><line fill="none" stroke="url(#SvgjsLinearGradient3790)" stroke-width="2.126" stroke-linejoin="bevel" x1="0.544" y1="78.899" x2="32.643" y2="61.885"></line></g></g><g id="SvgjsG3780" featureKey="nameFeature-0" transform="matrix(3.7399245263117917,0,0,3.7399245263117917,47.163908876452716,103.95344290405845)" fill="url(#SvgjsLinearGradient3794)"><path d="M21.204 13.64 l-0.00039062 6.9692 c0 0.18641 -0.12961 0.31602 -0.31602 0.31602 c-0.17801 0 -0.30762 -0.12961 -0.30762 -0.31602 l0 -1.6192 c0 -2.76 -1.64 -4.7268 -4.92 -4.7268 l-2.014 0 c-0.5812 0 -0.96244 0.438 -0.96244 0.9236 l0 23.263 c0 0.4872 0.37961 0.9272 0.96244 0.9272 l1.036 0 c0.18641 0 0.31602 0.12961 0.31602 0.30762 c0 0.18641 -0.12961 0.31602 -0.31602 0.31602 l-7.404 0 c-0.18602 0 -0.31562 -0.12961 -0.31562 -0.31602 c0 -0.17801 0.12961 -0.30762 0.31562 -0.30762 l1.036 0 c0.5812 0 0.96244 -0.4356 0.96244 -0.9236 l0 -23.263 c0 -0.4888 -0.37961 -0.9268 -0.96244 -0.9268 l-1.378 0 c-3.5972 0 -5.5544 1.6496 -5.5544 5.3612 l0 0.9848 c0 0.18641 -0.12961 0.31602 -0.31562 0.31602 c-0.17801 0 -0.30762 -0.12961 -0.30762 -0.31602 l0 -6.9696 l20.446 0 z M37.1824 40.25801 c-4.6332 0 -8.1504 -2.6136 -8.1504 -5.6052 c0 -1.4456 0.782 -2.3188 1.746 -2.3188 c0.7408 0 1.6084 0.4912 1.6084 1.5284 c0 1.298 -1.4316 1.542 -1.4316 2.542 c0 1.8236 3.4496 3.1588 5.8964 3.1588 c3.9268 0 7.0232 -2.0496 7.0232 -5.7432 c0 -7.306 -14.258 -4.7296 -14.258 -13.808 c0 -3.5408 2.8124 -6.6292 8.3724 -6.6292 c4.4676 0 8.076 2.4428 8.076 5.4016 c0 1.4704 -0.782 2.3516 -1.738 2.3516 c-0.7488 0 -1.6164 -0.4992 -1.6164 -1.5364 c0 -1.3312 1.4236 -1.5092 1.4236 -2.5092 c0 -1.7988 -3.4496 -3.0124 -5.888 -3.0124 c-3.04 0 -6.3228 1.0812 -6.3228 5.0424 c0 6.5904 14.655 4.3916 14.655 13.841 c0 3.2344 -2.8372 7.2964 -9.396 7.2964 z M78.30000000000001 37.8524 c-2.9448 1.5544 -6.2172 2.4053 -9.1428 2.4053 c-7.254 0 -12.984 -4.7864 -12.984 -13.418 c0 -9.258 6.4152 -13.458 12.708 -13.458 c5.0016 0 9.2552 2.684 9.2552 6.4592 c0 1.894 -1.0208 2.6968 -1.9932 2.6968 c-0.916 0 -1.792 -0.666 -1.792 -1.7668 c0 -1.4344 1.6884 -1.7488 1.6884 -2.8936 c0 -1.9088 -3.1684 -3.7748 -6.73 -3.7748 c-4.3944 0 -9.5184 2.9488 -9.5184 12.738 c0 8.2772 4.276 12.647 9.9808 12.647 c1.586 0 3.3308 -0.34199 5.1224 -1.0344 l0 -8.4784 c0 -0.498 -0.36961 -0.956 -0.96404 -0.956 l-2.7876 0 c-0.18602 0 -0.31562 -0.12961 -0.31562 -0.30762 c0 -0.18641 0.12961 -0.31602 0.31562 -0.31602 l7.1572 0 l0 9.458 z"></path></g><g id="SvgjsG3781" featureKey="sloganFeature-0" transform="matrix(0.8,0,0,0.8,53.93009376525879,269.6468788146973)" fill="url(#SvgjsLinearGradient3798)"><path d="M12.909 19.6882 c0.089004 0 0.15762 0.064804 0.15762 0.15801 c0 0.089004 -0.069004 0.15381 -0.15801 0.15381 l-4.5034 0 c-0.089004 0 -0.15801 -0.064804 -0.15801 -0.15381 c0 -0.093204 0.069004 -0.15801 0.15801 -0.15801 l0.72 0 c0.402 0 0.62738 -0.303 0.47998 -0.7 l-1.239 -3.249 l-5.1044 0 l-1.2558 3.249 c-0.14 0.3616 0.08039 0.7 0.48 0.7 l0.72 0 c0.089004 0 0.15801 0.064804 0.15801 0.15801 c0 0.089004 -0.069004 0.15381 -0.15801 0.15381 l-2.9606 0 c-0.089004 0 -0.15801 -0.064804 -0.15801 -0.15381 c0 -0.093204 0.069004 -0.15801 0.15801 -0.15801 l0.48 0 c0.52 0 0.7558 -0.26 0.92 -0.7 l4.7614 -12.241 l0.37801 0 l4.7042 12.261 c0.1442 0.36 0.42 0.68 0.98 0.68 l0.44 0 z M3.3868 15.4316 l4.8658 0 l-2.4148 -6.332 z M31.141 16.5158 c0.089004 0 0.154 0.06463 0.154 0.15783 l0 3.3262 l-8.604 0 c-0.093008 0 -0.15781 -0.064804 -0.15781 -0.15801 c0 -0.089004 0.064804 -0.15381 0.15781 -0.15381 l0.51801 0 c0.2906 0 0.48122 -0.2178 0.48122 -0.4618 l0 -11.631 c0 -0.2444 -0.1898 -0.4634 -0.48122 -0.4634 l-0.51801 0 c-0.093008 0 -0.15781 -0.064804 -0.15781 -0.15381 c0 -0.093204 0.064804 -0.15801 0.15781 -0.15801 l3.702 0 c0.093008 0 0.15781 0.064804 0.15781 0.15801 c0 0.089004 -0.064804 0.15381 -0.15781 0.15381 l-0.51801 0 c-0.2906 0 -0.48122 0.219 -0.48122 0.4618 l0 11.631 c0 0.2436 0.1898 0.4636 0.48122 0.4636 l2.6482 0 c1.6276 0 2.46 -1.3048 2.46 -2.6516 l0 -0.36279 c0 -0.093204 0.064804 -0.15801 0.15781 -0.15801 z M49.531 16.5158 c0.089004 0 0.154 0.06463 0.154 0.15783 l0 3.3262 l-8.604 0 c-0.093008 0 -0.15781 -0.064804 -0.15781 -0.15801 c0 -0.089004 0.064804 -0.15381 0.15781 -0.15381 l0.51801 0 c0.2906 0 0.48122 -0.2178 0.48122 -0.4618 l0 -11.631 c0 -0.2444 -0.1898 -0.4634 -0.48122 -0.4634 l-0.51801 0 c-0.093008 0 -0.15781 -0.064804 -0.15781 -0.15381 c0 -0.093204 0.064804 -0.15801 0.15781 -0.15801 l3.702 0 c0.093008 0 0.15781 0.064804 0.15781 0.15801 c0 0.089004 -0.064804 0.15381 -0.15781 0.15381 l-0.51801 0 c-0.2906 0 -0.48122 0.219 -0.48122 0.4618 l0 11.631 c0 0.2436 0.1898 0.4636 0.48122 0.4636 l2.6482 0 c1.6276 0 2.46 -1.3048 2.46 -2.6516 l0 -0.36279 c0 -0.093204 0.064804 -0.15801 0.15781 -0.15801 z M77.0662 20.129 c-2.3166 0 -4.0752 -1.3068 -4.0752 -2.8026 c0 -0.7228 0.391 -1.1594 0.87298 -1.1594 c0.3704 0 0.8042 0.2456 0.8042 0.7642 c0 0.649 -0.7158 0.771 -0.7158 1.271 c0 0.9118 1.7248 1.5794 2.9482 1.5794 c1.9634 0 3.5116 -1.0248 3.5116 -2.8716 c0 -3.653 -7.129 -2.3648 -7.129 -6.904 c0 -1.7704 1.4062 -3.3146 4.1862 -3.3146 c2.2338 0 4.038 1.2214 4.038 2.7008 c0 0.7352 -0.391 1.1758 -0.869 1.1758 c-0.3744 0 -0.8082 -0.2496 -0.8082 -0.7682 c0 -0.6656 0.7118 -0.7546 0.7118 -1.2546 c0 -0.8994 -1.7248 -1.5062 -2.944 -1.5062 c-1.52 0 -3.1614 0.5406 -3.1614 2.5212 c0 3.2952 7.3276 2.1958 7.3276 6.9206 c0 1.6172 -1.4186 3.6482 -4.698 3.6482 z M102.19200000000001 6.82 l-0.00019531 3.4846 c0 0.093204 -0.064804 0.15801 -0.15801 0.15801 c-0.089004 0 -0.15381 -0.064804 -0.15381 -0.15801 l0 -0.80961 c0 -1.38 -0.82 -2.3634 -2.46 -2.3634 l-1.007 0 c-0.2906 0 -0.48122 0.219 -0.48122 0.4618 l0 11.631 c0 0.2436 0.1898 0.4636 0.48122 0.4636 l0.51801 0 c0.093204 0 0.15801 0.064804 0.15801 0.15381 c0 0.093204 -0.064804 0.15801 -0.15801 0.15801 l-3.702 0 c-0.093008 0 -0.15781 -0.064804 -0.15781 -0.15801 c0 -0.089004 0.064804 -0.15381 0.15781 -0.15381 l0.51801 0 c0.2906 0 0.48122 -0.2178 0.48122 -0.4618 l0 -11.631 c0 -0.2444 -0.1898 -0.4634 -0.48122 -0.4634 l-0.689 0 c-1.7986 0 -2.7772 0.8248 -2.7772 2.6806 l0 0.4924 c0 0.093204 -0.064804 0.15801 -0.15781 0.15801 c-0.089004 0 -0.15381 -0.064804 -0.15381 -0.15801 l0 -3.4848 l10.223 0 z M120.94900000000001 16.3572 c0.089004 0 0.154 0.065234 0.154 0.15844 l0 3.4848 l-9.002 0 c-0.093008 0 -0.15781 -0.064804 -0.15781 -0.15801 c0 -0.089004 0.064804 -0.15381 0.15781 -0.15381 l0.51801 0 c0.2906 0 0.48122 -0.219 0.48122 -0.4618 l0 -11.631 c0 -0.2436 -0.1898 -0.4636 -0.48122 -0.4636 l-0.51801 0 c-0.093008 0 -0.15781 -0.064804 -0.15781 -0.15381 c0 -0.093204 0.064804 -0.15801 0.15781 -0.15801 l8.9234 0 l0 3.4848 c0 0.093204 -0.064804 0.15801 -0.15781 0.15801 c-0.089004 0 -0.15381 -0.064804 -0.15381 -0.15801 l0 -0.80961 c0 -1.38 -0.82 -2.3634 -2.46 -2.3634 l-2.9678 0 c-0.2906 0 -0.48122 0.2178 -0.48122 0.4618 l0 5.3726 l1.5878 0 c1.6304 0 1.811 -0.5676 1.811 -1.4958 l0 -0.18279 c0 -0.089004 0.069004 -0.15801 0.15801 -0.15801 s0.15801 0.069004 0.15801 0.15801 l0 3.6772 c0 0.089004 -0.069004 0.15801 -0.15801 0.15801 s-0.15801 -0.064804 -0.15801 -0.17041 l0 -0.19859 c0 -0.8918 -0.1724 -1.4676 -1.811 -1.4676 l-1.5878 0 l0 5.9386 c0 0.2444 0.1898 0.4634 0.48122 0.4634 l3.0462 0 c1.64 0 2.46 -0.9834 2.46 -2.3634 l0 -0.80961 c0 -0.093204 0.064804 -0.15801 0.15781 -0.15801 z M141.039 16.3572 c0.089004 0 0.154 0.065234 0.154 0.15844 l0 3.4848 l-9.002 0 c-0.093008 0 -0.15781 -0.064804 -0.15781 -0.15801 c0 -0.089004 0.064804 -0.15381 0.15781 -0.15381 l0.51801 0 c0.2906 0 0.48122 -0.219 0.48122 -0.4618 l0 -11.631 c0 -0.2436 -0.1898 -0.4636 -0.48122 -0.4636 l-0.51801 0 c-0.093008 0 -0.15781 -0.064804 -0.15781 -0.15381 c0 -0.093204 0.064804 -0.15801 0.15781 -0.15801 l8.9234 0 l0 3.4848 c0 0.093204 -0.064804 0.15801 -0.15781 0.15801 c-0.089004 0 -0.15381 -0.064804 -0.15381 -0.15801 l0 -0.80961 c0 -1.38 -0.82 -2.3634 -2.46 -2.3634 l-2.9678 0 c-0.2906 0 -0.48122 0.2178 -0.48122 0.4618 l0 5.3726 l1.5878 0 c1.6304 0 1.811 -0.5676 1.811 -1.4958 l0 -0.18279 c0 -0.089004 0.069004 -0.15801 0.15801 -0.15801 s0.15801 0.069004 0.15801 0.15801 l0 3.6772 c0 0.089004 -0.069004 0.15801 -0.15801 0.15801 s-0.15801 -0.064804 -0.15801 -0.17041 l0 -0.19859 c0 -0.8918 -0.1724 -1.4676 -1.811 -1.4676 l-1.5878 0 l0 5.9386 c0 0.2444 0.1898 0.4634 0.48122 0.4634 l3.0462 0 c1.64 0 2.46 -0.9834 2.46 -2.3634 l0 -0.80961 c0 -0.093204 0.064804 -0.15801 0.15781 -0.15801 z M160.731 16.5158 c0.089004 0 0.154 0.06463 0.154 0.15783 l0 3.3262 l-8.604 0 c-0.093008 0 -0.15781 -0.064804 -0.15781 -0.15801 c0 -0.089004 0.064804 -0.15381 0.15781 -0.15381 l0.51801 0 c0.2906 0 0.48122 -0.2178 0.48122 -0.4618 l0 -11.631 c0 -0.2444 -0.1898 -0.4634 -0.48122 -0.4634 l-0.51801 0 c-0.093008 0 -0.15781 -0.064804 -0.15781 -0.15381 c0 -0.093204 0.064804 -0.15801 0.15781 -0.15801 l3.702 0 c0.093008 0 0.15781 0.064804 0.15781 0.15801 c0 0.089004 -0.064804 0.15381 -0.15781 0.15381 l-0.51801 0 c-0.2906 0 -0.48122 0.219 -0.48122 0.4618 l0 11.631 c0 0.2436 0.1898 0.4636 0.48122 0.4636 l2.6482 0 c1.6276 0 2.46 -1.3048 2.46 -2.6516 l0 -0.36279 c0 -0.093204 0.064804 -0.15801 0.15781 -0.15801 z M188.26619999999997 20.129 c-2.3166 0 -4.0752 -1.3068 -4.0752 -2.8026 c0 -0.7228 0.391 -1.1594 0.87298 -1.1594 c0.3704 0 0.8042 0.2456 0.8042 0.7642 c0 0.649 -0.7158 0.771 -0.7158 1.271 c0 0.9118 1.7248 1.5794 2.9482 1.5794 c1.9634 0 3.5116 -1.0248 3.5116 -2.8716 c0 -3.653 -7.129 -2.3648 -7.129 -6.904 c0 -1.7704 1.4062 -3.3146 4.1862 -3.3146 c2.2338 0 4.038 1.2214 4.038 2.7008 c0 0.7352 -0.391 1.1758 -0.869 1.1758 c-0.3744 0 -0.8082 -0.2496 -0.8082 -0.7682 c0 -0.6656 0.7118 -0.7546 0.7118 -1.2546 c0 -0.8994 -1.7248 -1.5062 -2.944 -1.5062 c-1.52 0 -3.1614 0.5406 -3.1614 2.5212 c0 3.2952 7.3276 2.1958 7.3276 6.9206 c0 1.6172 -1.4186 3.6482 -4.698 3.6482 z M209.88439999999997 6.695 c3.7924 0 5.998 2.8256 5.998 6.6456 s-2.2056 6.7882 -5.998 6.7882 c-3.7966 0 -5.998 -2.9682 -5.998 -6.7882 s2.2014 -6.6456 5.998 -6.6456 z M209.88439999999997 19.78558 c3.0958 0 4.1888 -3.0848 4.1888 -6.4448 s-1.093 -6.302 -4.1888 -6.302 s-4.1888 2.942 -4.1888 6.302 s1.093 6.4448 4.1888 6.4448 z M234.95099999999996 16.5158 c0.089004 0 0.154 0.06463 0.154 0.15783 l0 3.3262 l-8.604 0 c-0.093008 0 -0.15781 -0.064804 -0.15781 -0.15801 c0 -0.089004 0.064804 -0.15381 0.15781 -0.15381 l0.51801 0 c0.2906 0 0.48122 -0.2178 0.48122 -0.4618 l0 -11.631 c0 -0.2444 -0.1898 -0.4634 -0.48122 -0.4634 l-0.51801 0 c-0.093008 0 -0.15781 -0.064804 -0.15781 -0.15381 c0 -0.093204 0.064804 -0.15801 0.15781 -0.15801 l3.702 0 c0.093008 0 0.15781 0.064804 0.15781 0.15801 c0 0.089004 -0.064804 0.15381 -0.15781 0.15381 l-0.51801 0 c-0.2906 0 -0.48122 0.219 -0.48122 0.4618 l0 11.631 c0 0.2436 0.1898 0.4636 0.48122 0.4636 l2.6482 0 c1.6276 0 2.46 -1.3048 2.46 -2.6516 l0 -0.36279 c0 -0.093204 0.064804 -0.15801 0.15781 -0.15801 z M256.24399999999997 6.82 c0.093204 0 0.15809 0.064844 0.15809 0.15385 c0 0.093008 -0.064804 0.15781 -0.15801 0.15781 l-0.51801 0 c-0.2972 0 -0.48202 0.229 -0.48202 0.478 l0 7.6876 c0 3.5856 -2.1406 4.8318 -4.6296 4.8318 c-2.0366 0 -4.7248 -0.878 -4.7248 -4.8952 l0 -7.6242 c0 -0.249 -0.1848 -0.478 -0.48202 -0.478 l-0.51801 0 c-0.093008 0 -0.15781 -0.064804 -0.15781 -0.15381 c0 -0.093204 0.064804 -0.15801 0.15781 -0.15801 l3.7028 0 c0.093008 0 0.15781 0.064804 0.15781 0.15801 c0 0.089004 -0.064804 0.15381 -0.15781 0.15381 l-0.51801 0 c-0.2972 0 -0.48202 0.229 -0.48202 0.478 l0 7.9076 c0 3.1476 1.5538 4.1496 3.4386 4.1496 c2.0592 0 3.8682 -1.1882 3.8682 -4.324 l0 -7.7332 c0 -0.249 -0.1848 -0.478 -0.48202 -0.478 l-0.51801 0 c-0.093008 0 -0.15781 -0.064804 -0.15781 -0.15781 c0 -0.089004 0.064804 -0.15381 0.15781 -0.15381 l2.3448 0 z M276.38199999999995 6.82 l-0.00019531 3.4846 c0 0.093204 -0.064804 0.15801 -0.15801 0.15801 c-0.089004 0 -0.15381 -0.064804 -0.15381 -0.15801 l0 -0.80961 c0 -1.38 -0.82 -2.3634 -2.46 -2.3634 l-1.007 0 c-0.2906 0 -0.48122 0.219 -0.48122 0.4618 l0 11.631 c0 0.2436 0.1898 0.4636 0.48122 0.4636 l0.51801 0 c0.093204 0 0.15801 0.064804 0.15801 0.15381 c0 0.093204 -0.064804 0.15801 -0.15801 0.15801 l-3.702 0 c-0.093008 0 -0.15781 -0.064804 -0.15781 -0.15801 c0 -0.089004 0.064804 -0.15381 0.15781 -0.15381 l0.51801 0 c0.2906 0 0.48122 -0.2178 0.48122 -0.4618 l0 -11.631 c0 -0.2444 -0.1898 -0.4634 -0.48122 -0.4634 l-0.689 0 c-1.7986 0 -2.7772 0.8248 -2.7772 2.6806 l0 0.4924 c0 0.093204 -0.064804 0.15801 -0.15781 0.15801 c-0.089004 0 -0.15381 -0.064804 -0.15381 -0.15801 l0 -3.4848 l10.223 0 z M289.9928 19.6882 c0.093008 0 0.15781 0.06461 0.15781 0.15361 c0 0.093204 -0.064804 0.15801 -0.15781 0.15801 l-3.702 0 c-0.093008 0 -0.15781 -0.064804 -0.15781 -0.15801 c0 -0.089004 0.064804 -0.15381 0.15781 -0.15381 l0.51801 0 c0.2906 0 0.48122 -0.2178 0.48122 -0.4618 l0 -11.631 c0 -0.2444 -0.1898 -0.4634 -0.48122 -0.4634 l-0.51801 0 c-0.093008 0 -0.15781 -0.064804 -0.15781 -0.15381 c0 -0.093204 0.064804 -0.15801 0.15781 -0.15801 l3.702 0 c0.093008 0 0.15781 0.064804 0.15781 0.15801 c0 0.089004 -0.064804 0.15381 -0.15781 0.15381 l-0.51801 0 c-0.2906 0 -0.48122 0.219 -0.48122 0.4618 l0 11.631 c0 0.2436 0.1898 0.4636 0.48122 0.4636 l0.51801 0 z M306.6144 6.695 c3.7924 0 5.998 2.8256 5.998 6.6456 s-2.2056 6.7882 -5.998 6.7882 c-3.7966 0 -5.998 -2.9682 -5.998 -6.7882 s2.2014 -6.6456 5.998 -6.6456 z M306.6144 19.78558 c3.0958 0 4.1888 -3.0848 4.1888 -6.4448 s-1.093 -6.302 -4.1888 -6.302 s-4.1888 2.942 -4.1888 6.302 s1.093 6.4448 4.1888 6.4448 z M334.191 6.82 c0.093204 0 0.15803 0.064454 0.15803 0.15346 c0 0.093008 -0.064804 0.15781 -0.15781 0.15781 l-0.51801 0 c-0.2972 0 -0.48202 0.229 -0.48202 0.478 l0 12.39 l-0.7918 0 l-7.8248 -11.482 l0 10.692 c0 0.249 0.1848 0.478 0.48202 0.478 l0.51801 0 c0.093204 0 0.15801 0.064804 0.15801 0.15801 c0 0.089004 -0.064804 0.15381 -0.15801 0.15381 l-2.3448 0 c-0.093008 0 -0.15781 -0.064804 -0.15781 -0.15381 c0 -0.093204 0.064804 -0.15801 0.15781 -0.15801 l0.51801 0 c0.2972 0 0.48202 -0.229 0.48202 -0.478 l0 -11.601 c0 -0.249 -0.1848 -0.478 -0.48202 -0.478 l-0.51801 0 c-0.093008 0 -0.15781 -0.064804 -0.15781 -0.15781 c0 -0.089004 0.064804 -0.15381 0.15781 -0.15381 l2.1806 0 l7.4358 10.908 l0 -10.118 c0 -0.249 -0.1848 -0.478 -0.48202 -0.478 l-0.51801 0 c-0.093204 0 -0.15801 -0.064804 -0.15801 -0.15781 c0 -0.089004 0.064804 -0.15381 0.15801 -0.15381 l2.3448 0 z M348.70619999999997 20.129 c-2.3166 0 -4.0752 -1.3068 -4.0752 -2.8026 c0 -0.7228 0.391 -1.1594 0.87298 -1.1594 c0.3704 0 0.8042 0.2456 0.8042 0.7642 c0 0.649 -0.7158 0.771 -0.7158 1.271 c0 0.9118 1.7248 1.5794 2.9482 1.5794 c1.9634 0 3.5116 -1.0248 3.5116 -2.8716 c0 -3.653 -7.129 -2.3648 -7.129 -6.904 c0 -1.7704 1.4062 -3.3146 4.1862 -3.3146 c2.2338 0 4.038 1.2214 4.038 2.7008 c0 0.7352 -0.391 1.1758 -0.869 1.1758 c-0.3744 0 -0.8082 -0.2496 -0.8082 -0.7682 c0 -0.6656 0.7118 -0.7546 0.7118 -1.2546 c0 -0.8994 -1.7248 -1.5062 -2.944 -1.5062 c-1.52 0 -3.1614 0.5406 -3.1614 2.5212 c0 3.2952 7.3276 2.1958 7.3276 6.9206 c0 1.6172 -1.4186 3.6482 -4.698 3.6482 z"></path></g>
			</g>
		</svg>
	